HIERARCHY
ROOT Hips
{
  OFFSET -1.56614 0.00 -1.85809
  CHANNELS 6 Xposition Yposition Zposition Zrotation Xrotation Yrotation
  JOINT LHipJoint
  {
    OFFSET 0 0 0
    CHANNELS 3 Zrotation Xrotation Yrotation
    JOINT LeftUpLeg
    {
      OFFSET 1.8 -1.4 0.085
      CHANNELS 3 Zrotation Xrotation Yrotation
      JOINT LeftLeg
      {
        OFFSET 2.215 -6 0
        CHANNELS 3 Zrotation Xrotation Yrotation
        JOINT LeftFoot
        {
          OFFSET 2.5 -6.9 0
          CHANNELS 3 Zrotation Xrotation Yrotation
          JOINT LeftToeBase
          {
            OFFSET 0.2 -0.5 1.95
            CHANNELS 3 Zrotation Xrotation Yrotation
            End Site
            {
              OFFSET 0 0 1
            }
          }
        }
      }
    }
  }
  JOINT RHipJoint
  {
    OFFSET 0 0 0
    CHANNELS 3 Zrotation Xrotation Yrotation
    JOINT RightUpLeg
    {
      OFFSET -1.8 -1.4 0.085
      CHANNELS 3 Zrotation Xrotation Yrotation
      JOINT RightLeg
      {
        OFFSET -2.215 -6 0
        CHANNELS 3 Zrotation Xrotation Yrotation
        JOINT RightFoot
        {
          OFFSET -2.5 -6.9 0
          CHANNELS 3 Zrotation Xrotation Yrotation
          JOINT RightToeBase
          {
            OFFSET -0.2 -0.5 1.95
            CHANNELS 3 Zrotation Xrotation Yrotation
            End Site
            {
              OFFSET 0 0 1
            }
          }
        }
      }
    }
  }
  JOINT LowerBack
  {
    OFFSET 0 0 0
    CHANNELS 3 Zrotation Xrotation Yrotation
    JOINT Spine
    {
      OFFSET -0.087 1.94 -0.2889
      CHANNELS 3 Zrotation Xrotation Yrotation
      JOINT Spine1
      {
        OFFSET 0 1.95 0.06
        CHANNELS 3 Zrotation Xrotation Yrotation
        JOINT Neck
        {
          OFFSET 0 0 0
          CHANNELS 3 Zrotation Xrotation Yrotation
          JOINT Neck1
          {
            OFFSET 0 1.6 0.34
            CHANNELS 3 Zrotation Xrotation Yrotation
            JOINT Head
            {
              OFFSET 0 1.667 -0.24
              CHANNELS 3 Zrotation Xrotation Yrotation
              End Site
              {
                OFFSET 0 1.686 -0.12
              }
            }
          }
        }
        JOINT LeftShoulder
        {
          OFFSET 0 0 0
          CHANNELS 3 Zrotation Xrotation Yrotation
          JOINT LeftArm
          {
            OFFSET 2.7 1.55 -0.73
            CHANNELS 3 Zrotation Xrotation Yrotation
            JOINT LeftForeArm
            {
              OFFSET 5.45 0 0
              CHANNELS 3 Zrotation Xrotation Yrotation
              JOINT LeftHand
              {
                OFFSET 3.45 0 0
                CHANNELS 3 Zrotation Xrotation Yrotation
                JOINT LeftFingerBase
                {
                  OFFSET 0 0 0
                  CHANNELS 3 Zrotation Xrotation Yrotation
                  JOINT LeftHandIndex1
                  {
                    OFFSET 0.75 0 0
                    CHANNELS 3 Zrotation Xrotation Yrotation
                    End Site
                    {
                      OFFSET 0.6 0 0
                    }
                  }
                }
                JOINT LThumb
                {
                  OFFSET 0 0 0
                  CHANNELS 3 Zrotation Xrotation Yrotation
                  End Site
                  {
                    OFFSET 0.59 0 0.59
                  }
                }
              }
            }
          }
        }
        JOINT RightShoulder
        {
          OFFSET 0 0 0
          CHANNELS 3 Zrotation Xrotation Yrotation
          JOINT RightArm
          {
            OFFSET -2.7 1.55 -0.73
            CHANNELS 3 Zrotation Xrotation Yrotation
            JOINT RightForeArm
            {
              OFFSET -5.45 0 0
              CHANNELS 3 Zrotation Xrotation Yrotation
              JOINT RightHand
              {
                OFFSET -3.45 0 0
                CHANNELS 3 Zrotation Xrotation Yrotation
                JOINT RightFingerBase
                {
                  OFFSET 0 0 0
                  CHANNELS 3 Zrotation Xrotation Yrotation
                  JOINT RightHandIndex1
                  {
                    OFFSET -0.75 0 0
                    CHANNELS 3 Zrotation Xrotation Yrotation
                    End Site
                    {
                      OFFSET -0.6 0 0
                    }
                  }
                }
                JOINT RThumb
                {
                  OFFSET 0 0 0
                  CHANNELS 3 Zrotation Xrotation Yrotation
                  End Site
                  {
                    OFFSET -0.59 0 0.59
                  }
                }
              }
            }
          }
        }
      }
    }
  }
}
MOTION
Frames:	4
Frame Time:	0.00833333
-13.0321 17.8105 -16.8153 -2.51207 6.60773 -75.7255 7.95139e-016 0 -0 -10.0954 -29.3857 -1.26353 11.9854 -12.9431 56.3747 15.5406 43.9931 9.47135 3.57812e-015 -6.36111e-015 -2.38542e-015 7.95139e-016 0 -0 37.4211 -3.4986 9.02553 -5.62979 -1.12146 -43.6876 -17.3501 0.928357 -0.179464 1.59028e-015 2.5842e-014 3.18055e-015 7.95139e-016 0 -0 -9.66853 12.9872 -3.03136 6.27035 -5.58442 -4.81983 0.79594 -9.53249 9.8403 -3.06874 27.1432 10.7538 -44.7699 -0.995523 39.9989 -28.6148 7.5504 -18.0372 -63.4809 -24.0444 -34.1602 -1.30964 5.81146 -69.9896 12.9737 0.213393 -15.3746 3.18055e-015 7.95139e-016 3.97569e-016 3.18055e-015 3.97569e-015 3.97569e-016 3.86217e-032 7.95139e-016 -2.78299e-015 -11.1364 0.031893 -6.02114 42.3165 -33.2312 12.7073 17.7826 -6.61703 46.2589 -12.7842 0.243009 15.3581 1.59028e-015 3.18055e-015 -3.18055e-015 -3.18055e-015 1.27222e-014 6.36111e-015 1.59028e-015 3.18055e-015 -3.18055e-015 
-13.0822 17.8292 -16.7575 -2.45012 6.82373 -76.068 7.95139e-016 -7.95139e-016 3.18055e-015 -10.1728 -28.7829 -1.28303 12.5288 -13.5136 57.1591 14.6971 43.4614 9.74765 -0 0 3.18055e-015 7.95139e-016 -7.95139e-016 3.18055e-015 37.4182 -2.787 8.81756 -5.69159 -2.06617 -43.2448 -17.5318 1.19175 -0.231428 1.32417e-030 2.38542e-014 -3.18055e-015 7.95139e-016 -7.95139e-016 3.18055e-015 -9.65588 12.7603 -3.05655 6.27751 -5.55557 -4.82566 0.6206 -9.64399 10.071 -3.34963 27.0136 11.0564 -44.7398 -1.50097 40.353 -29.4259 7.7049 -17.986 -63.4316 -23.445 -33.4531 -1.63608 5.83681 -69.7006 13.3373 0.160775 -15.458 3.18055e-015 -3.18055e-015 1.19271e-015 6.36111e-015 -1.59028e-015 8.34896e-015 -1.10348e-031 -3.18055e-015 -1.98785e-015 -10.9709 0.0285851 -6.08216 41.548 -33.549 12.9427 18.5203 -7.5247 46.6387 -11.816 0.396525 15.5864 1.59028e-015 6.36111e-015 3.18055e-015 -1.59028e-015 -3.18055e-015 -6.36111e-015 1.59028e-015 6.36111e-015 3.18055e-015 
-13.1343 17.8481 -16.699 -2.38125 7.01416 -76.4117 7.95139e-016 0 -3.18055e-015 -10.276 -28.1925 -1.3278 13.0609 -14.0454 57.8709 14.0087 42.9116 9.93869 1.98785e-016 3.18055e-015 3.18055e-015 7.95139e-016 0 -3.18055e-015 37.3915 -2.08941 8.59546 -5.73276 -2.98356 -42.7954 -17.6831 1.44049 -0.281828 -3.18055e-015 2.34566e-014 -3.18055e-015 7.95139e-016 0 -3.18055e-015 -9.62506 12.5259 -3.06902 6.24461 -5.53582 -4.8102 0.442469 -9.75109 10.2948 -3.63053 26.8882 11.352 -44.7007 -1.96803 40.6978 -30.1934 7.84166 -17.9101 -63.3402 -22.8277 -32.7425 -1.91257 5.888 -69.3457 13.5278 0.133615 -15.5203 -3.18055e-015 -4.77083e-015 1.19271e-015 -6.36111e-015 0 1.59028e-015 -3.18055e-015 -4.77083e-015 -1.98785e-015 -10.7622 0.0244858 -6.11909 40.6552 -33.9157 13.1276 19.3279 -8.48197 47.0797 -10.941 0.543316 15.9011 1.59028e-015 3.18055e-015 -0 1.11319e-014 0 -3.18055e-015 1.59028e-015 3.18055e-015 -0 
-13.1884 17.8639 -16.6404 -2.30267 7.1778 -76.7303 -2.38542e-015 1.98785e-016 -1.59028e-015 -10.4392 -27.672 -1.39715 13.4864 -14.4617 58.3996 13.7888 42.1416 9.84856 2.98177e-015 3.18055e-015 -1.59028e-015 -2.38542e-015 1.98785e-016 -1.59028e-015 37.3523 -1.49491 8.39373 -5.76272 -3.70934 -42.3969 -17.7478 1.60268 -0.318551 -2.6042e-030 2.34566e-014 6.36111e-015 -2.38542e-015 1.98785e-016 -1.59028e-015 -9.57722 12.2806 -3.07486 6.14267 -5.51466 -4.77642 0.292717 -9.85536 10.5002 -3.87259 26.7668 11.6181 -44.6926 -2.39852 41.0323 -30.8961 7.96281 -17.8344 -63.2286 -22.2107 -32.0712 -1.89883 6.02374 -68.8416 13.358 0.159768 -15.5436 -3.18055e-015 -1.59028e-015 7.95139e-015 3.18055e-015 3.18055e-015 5.1684e-015 -3.18055e-015 -1.59028e-015 4.77083e-015 -10.4571 0.0183198 -6.08972 39.5599 -34.3198 13.1529 20.3109 -9.53141 47.6664 -10.2565 0.672723 16.3504 -1.05934e-030 9.54166e-015 6.36111e-015 -1.59028e-015 6.36111e-015 3.18055e-015 -1.05934e-030 9.54166e-015 6.36111e-015 
